# xmcd
#
# Track frame offsets: 
#        150
#        23037
#        49074
#        84016
#        112537
#        131343
#        146708
#
# Disc length: 2185 seconds
#
# Revision: 0
# Processed by: cddbd v1.5.2PL0 Copyright (c) Steve Scherf et al.
# Submitted via: ExactAudioCopy v0.95b3
#
DISCID=48088707
DTITLE=Flower Travellin' Band   - Music Composed Mostly By Humans [AGS
DTITLE=4]  FLAC
DYEAR=1900
DGENRE=
TTITLE0=I'm Dead
TTITLE1=Craveyard of Love
TTITLE2=Kirikyogen
TTITLE3=Map
TTITLE4=Time Machine
TTITLE5=Classroom
TTITLE6=The Scientific Investigation
EXTD=
EXTT0=
EXTT1=
EXTT2=
EXTT3=
EXTT4=
EXTT5=
EXTT6=
PLAYORDER=
